<svg width="61" height="61" viewBox="0 0 61 61" fill="none" xmlns="http://www.w3.org/2000/svg">
<path d="M51.3544 12.1772C49.9529 10.7659 48.2863 9.64544 46.4504 8.88036C44.6145 8.11528 42.6455 7.72064 40.6565 7.71912C36.8944 7.71973 33.2697 9.13298 30.5 11.679C27.7306 9.13255 24.1057 7.71923 20.3435 7.71912C18.3522 7.72119 16.381 8.11704 14.5433 8.88388C12.7055 9.65072 11.0376 10.7734 9.63546 12.1874C3.65492 18.1933 3.65746 27.5873 9.64054 33.5679L30.5 54.4273L51.3595 33.5679C57.3425 27.5873 57.3451 18.1933 51.3544 12.1772Z" fill="url(#paint0_linear_15_177)"/>
<defs>
<linearGradient id="paint0_linear_15_177" x1="30.4994" y1="7.71912" x2="30.4994" y2="54.4273" gradientUnits="userSpaceOnUse">
<stop offset="0.5625" stop-color="#F4B900" stop-opacity="0.83"/>
<stop offset="0.8125" stop-color="#F4B900" stop-opacity="0.674167"/>
<stop offset="1" stop-color="#F4B900" stop-opacity="0.67"/>
</linearGradient>
</defs>
</svg>
