<svg width="96" height="82" viewBox="0 0 96 82" fill="none" xmlns="http://www.w3.org/2000/svg">
<path d="M85.8705 30.7433C87.33 27.4078 87.7515 24.2271 86.703 21.3726C86.22 21.4094 85.719 21.4284 85.206 21.4284C69.843 21.4284 42.69 5.08453 40.635 2.53845C32.1675 12.9753 14.4195 20.9994 6.39753 29.9983C3.15153 33.6397 1.52853 36.3495 4.75803 40.5151L38.5815 77.2885C40.107 79.0363 43.0965 79.1784 45.225 77.5665C45.225 77.5665 72.963 47.4489 93.0015 38.1302C91.4955 35.6413 88.989 33.1574 85.8705 30.7433ZM37.992 69.4955L37.851 69.5779L37.7235 69.6719C37.2065 70.0642 36.7472 70.5079 36.3555 70.9931L7.04853 39.1316C4.93803 36.3685 5.53653 34.914 8.64303 31.4312C12.1665 27.4801 17.7975 23.6445 23.76 19.5842C29.958 15.3628 36.342 11.0169 41.031 6.07199C48.771 11.4611 70.4205 23.3602 84.429 23.7955C86.109 37.7533 51.906 61.2835 37.992 69.4955Z" fill="url(#paint0_linear_11_13)"/>
<path d="M29.9895 17.9698L67.797 43.0371L69.144 42.0166L30.9735 17.2234L29.9895 17.9698Z" fill="url(#paint1_linear_11_13)"/>
<path d="M42.3106 31.3132L26.8366 20.3572C26.8366 20.3572 21.4516 23.2663 14.9296 29.6467L28.6576 41.6562L42.3106 31.3132Z" fill="url(#paint2_linear_11_13)"/>
<path d="M8.40906 35.6146L37.6111 65.8997L43.0036 61.8166L11.8696 31.6965C11.8696 31.6965 9.15606 32.9391 8.40906 35.6146Z" fill="url(#paint3_linear_11_13)"/>
<path d="M41.13 37.3509L58.0935 50.3859L63.483 46.3028L45.8205 33.7983L41.13 37.3509Z" fill="url(#paint4_linear_11_13)"/>
<path d="M31.749 44.4574L47.3145 58.5509L52.7025 54.4691L36.4395 40.9048L31.749 44.4574Z" fill="url(#paint5_linear_11_13)"/>
<path d="M41.7855 13.6518L39.498 19.0867L40.932 19.9701L48.2145 14.4527L46.7895 13.6937L41.7719 17.4951L43.9904 12.1973L42.5024 11.4028L35.562 16.6599L36.8055 17.4253L41.7855 13.6518Z" fill="url(#paint6_linear_11_13)"/>
<path d="M48.018 24.3426L49.407 23.2878L45.1695 20.7392L47.091 19.2847L50.8545 21.4652L52.1909 20.4511L48.3855 18.301L49.9724 17.1003L54.186 19.4065L55.554 18.3721L49.728 15.2599L42.351 20.8484L48.018 24.3426Z" fill="url(#paint7_linear_11_13)"/>
<path d="M52.5315 27.1247L58.29 24.1738L60.1755 23.1635L58.9245 24.5317L55.2195 28.7849L57.009 29.8878L68.091 25.066L65.988 23.9428L59.9115 26.8848L58.3605 27.6794L59.4015 26.5206L63.003 22.3486L60.981 21.2698L55.3635 24.2156L53.871 25.014L54.8985 23.9085L58.3005 19.8381L56.4045 18.8252L50.913 26.1271L52.5315 27.1247Z" fill="url(#paint8_linear_11_13)"/>
<path d="M73.3605 27.5487C71.997 26.8239 70.7235 26.4774 69.5325 26.4977C68.3505 26.5193 67.3815 26.8201 66.618 27.3989C65.7795 28.0335 65.4975 28.6922 65.7735 29.3751C65.9355 29.785 66.4515 30.3778 67.332 31.1622L68.2425 31.9719C68.7855 32.4492 69.135 32.8401 69.288 33.1396C69.438 33.443 69.3645 33.7082 69.069 33.9316C68.5635 34.3137 67.905 34.386 67.0965 34.1525C66.5938 33.9911 66.1202 33.7711 65.6895 33.4988C64.8345 32.9835 64.419 32.4872 64.4295 32.0087C64.4355 31.7473 64.605 31.4477 64.9365 31.1101L62.97 29.95C62.0835 30.6215 61.7475 31.3703 61.9695 32.2017C62.193 33.0406 62.9535 33.8682 64.2735 34.683C65.589 35.4991 66.8985 35.9357 68.1855 35.984C69.486 36.0309 70.557 35.7415 71.382 35.1133C72.192 34.5015 72.48 33.844 72.249 33.1447C72.102 32.6967 71.6895 32.175 71.0235 31.581L69.531 30.2483C68.9625 29.7457 68.6235 29.3967 68.508 29.1974C68.328 28.894 68.3925 28.6262 68.703 28.3927C69.0405 28.1363 69.4725 28.0322 70.0005 28.0767C70.536 28.1211 71.094 28.3026 71.6775 28.6199C72.207 28.9093 72.5805 29.2088 72.789 29.5185C73.1115 29.9856 73.0215 30.4362 72.5265 30.8639L74.742 32.0988C75.663 31.3475 75.951 30.5517 75.6075 29.7152C75.2715 28.8864 74.52 28.163 73.3605 27.5487Z" fill="url(#paint9_linear_11_13)"/>
<defs>
<linearGradient id="paint0_linear_11_13" x1="48.0014" y1="2.53845" x2="48.0014" y2="78.6923" gradientUnits="userSpaceOnUse">
<stop offset="0.739583" stop-color="#21242B"/>
<stop offset="1" stop-opacity="0"/>
</linearGradient>
<linearGradient id="paint1_linear_11_13" x1="49.5668" y1="17.2234" x2="49.5668" y2="43.0371" gradientUnits="userSpaceOnUse">
<stop offset="0.739583" stop-color="#21242B"/>
<stop offset="1" stop-opacity="0"/>
</linearGradient>
<linearGradient id="paint2_linear_11_13" x1="28.6201" y1="20.3572" x2="28.6201" y2="41.6562" gradientUnits="userSpaceOnUse">
<stop offset="0.739583" stop-color="#21242B"/>
<stop offset="1" stop-opacity="0"/>
</linearGradient>
<linearGradient id="paint3_linear_11_13" x1="25.7063" y1="31.6965" x2="25.7063" y2="65.8997" gradientUnits="userSpaceOnUse">
<stop offset="0.739583" stop-color="#21242B"/>
<stop offset="1" stop-opacity="0"/>
</linearGradient>
<linearGradient id="paint4_linear_11_13" x1="52.3065" y1="33.7983" x2="52.3065" y2="50.3859" gradientUnits="userSpaceOnUse">
<stop offset="0.739583" stop-color="#21242B"/>
<stop offset="1" stop-opacity="0"/>
</linearGradient>
<linearGradient id="paint5_linear_11_13" x1="42.2258" y1="40.9048" x2="42.2258" y2="58.5509" gradientUnits="userSpaceOnUse">
<stop offset="0.739583" stop-color="#21242B"/>
<stop offset="1" stop-opacity="0"/>
</linearGradient>
<linearGradient id="paint6_linear_11_13" x1="41.8882" y1="11.4028" x2="41.8882" y2="19.9701" gradientUnits="userSpaceOnUse">
<stop offset="0.739583" stop-color="#21242B"/>
<stop offset="1" stop-opacity="0"/>
</linearGradient>
<linearGradient id="paint7_linear_11_13" x1="48.9525" y1="15.2599" x2="48.9525" y2="24.3426" gradientUnits="userSpaceOnUse">
<stop offset="0.739583" stop-color="#21242B"/>
<stop offset="1" stop-opacity="0"/>
</linearGradient>
<linearGradient id="paint8_linear_11_13" x1="59.502" y1="18.8252" x2="59.502" y2="29.8878" gradientUnits="userSpaceOnUse">
<stop offset="0.739583" stop-color="#21242B"/>
<stop offset="1" stop-opacity="0"/>
</linearGradient>
<linearGradient id="paint9_linear_11_13" x1="68.8254" y1="26.4969" x2="68.8254" y2="35.9889" gradientUnits="userSpaceOnUse">
<stop offset="0.739583" stop-color="#21242B"/>
<stop offset="1" stop-opacity="0"/>
</linearGradient>
</defs>
</svg>
